<?xml version="1.0" encoding="utf-8" standalone="no"?>
<!DOCTYPE svg PUBLIC "-//W3C//DTD SVG 1.1//EN"
  "http://www.w3.org/Graphics/SVG/1.1/DTD/svg11.dtd">
<svg xmlns:xlink="http://www.w3.org/1999/xlink" width="712.653125pt" height="493.274375pt" viewBox="0 0 712.653125 493.274375" xmlns="http://www.w3.org/2000/svg" version="1.1">
 <metadata>
  <rdf:RDF xmlns:dc="http://purl.org/dc/elements/1.1/" xmlns:cc="http://creativecommons.org/ns#" xmlns:rdf="http://www.w3.org/1999/02/22-rdf-syntax-ns#">
   <cc:Work>
    <dc:type rdf:resource="http://purl.org/dc/dcmitype/StillImage"/>
    <dc:date>2022-04-29T14:55:07.943534</dc:date>
    <dc:format>image/svg+xml</dc:format>
    <dc:creator>
     <cc:Agent>
      <dc:title>Matplotlib v3.5.1, https://matplotlib.org/</dc:title>
     </cc:Agent>
    </dc:creator>
   </cc:Work>
  </rdf:RDF>
 </metadata>
 <defs>
  <style type="text/css">*{stroke-linejoin: round; stroke-linecap: butt}</style>
 </defs>
 <g id="figure_1">
  <g id="patch_1">
   <path d="M 0 493.274375 
L 712.653125 493.274375 
L 712.653125 0 
L 0 0 
L 0 493.274375 
z
" style="fill: none"/>
  </g>
  <g id="axes_1">
   <g id="patch_2">
    <path d="M 66.053125 247.678125 
L 705.453125 247.678125 
L 705.453125 22.318125 
L 66.053125 22.318125 
z
" style="fill: #ffffff"/>
   </g>
   <g id="matplotlib.axis_1">
    <g id="xtick_1">
     <g id="line2d_1">
      <path d="M 95.116761 247.678125 
L 95.116761 22.318125 
" clip-path="url(#pb34e06cdf7)" style="fill: none; stroke: #b0b0b0; stroke-width: 0.8; stroke-linecap: square"/>
     </g>
     <g id="line2d_2">
      <defs>
       <path id="meeab2fd727" d="M 0 0 
L 0 3.5 
" style="stroke: #000000; stroke-width: 0.8"/>
      </defs>
      <g>
       <use xlink:href="#meeab2fd727" x="95.116761" y="247.678125" style="stroke: #000000; stroke-width: 0.8"/>
      </g>
     </g>
     <g id="text_1">
      <!-- 3 -->
      <g transform="translate(91.935511 262.276562)scale(0.1 -0.1)">
       <defs>
        <path id="DejaVuSans-33" d="M 2597 2516 
Q 3050 2419 3304 2112 
Q 3559 1806 3559 1356 
Q 3559 666 3084 287 
Q 2609 -91 1734 -91 
Q 1441 -91 1130 -33 
Q 819 25 488 141 
L 488 750 
Q 750 597 1062 519 
Q 1375 441 1716 441 
Q 2309 441 2620 675 
Q 2931 909 2931 1356 
Q 2931 1769 2642 2001 
Q 2353 2234 1838 2234 
L 1294 2234 
L 1294 2753 
L 1863 2753 
Q 2328 2753 2575 2939 
Q 2822 3125 2822 3475 
Q 2822 3834 2567 4026 
Q 2313 4219 1838 4219 
Q 1578 4219 1281 4162 
Q 984 4106 628 3988 
L 628 4550 
Q 988 4650 1302 4700 
Q 1616 4750 1894 4750 
Q 2613 4750 3031 4423 
Q 3450 4097 3450 3541 
Q 3450 3153 3228 2886 
Q 3006 2619 2597 2516 
z
" transform="scale(0.015625)"/>
       </defs>
       <use xlink:href="#DejaVuSans-33"/>
      </g>
     </g>
    </g>
    <g id="xtick_2">
     <g id="line2d_3">
      <path d="M 126.822546 247.678125 
L 126.822546 22.318125 
" clip-path="url(#pb34e06cdf7)" style="fill: none; stroke: #b0b0b0; stroke-width: 0.8; stroke-linecap: square"/>
     </g>
     <g id="line2d_4">
      <g>
       <use xlink:href="#meeab2fd727" x="126.822546" y="247.678125" style="stroke: #000000; stroke-width: 0.8"/>
      </g>
     </g>
     <g id="text_2">
      <!-- 21 -->
      <g transform="translate(120.460046 262.276562)scale(0.1 -0.1)">
       <defs>
        <path id="DejaVuSans-32" d="M 1228 531 
L 3431 531 
L 3431 0 
L 469 0 
L 469 531 
Q 828 903 1448 1529 
Q 2069 2156 2228 2338 
Q 2531 2678 2651 2914 
Q 2772 3150 2772 3378 
Q 2772 3750 2511 3984 
Q 2250 4219 1831 4219 
Q 1534 4219 1204 4116 
Q 875 4013 500 3803 
L 500 4441 
Q 881 4594 1212 4672 
Q 1544 4750 1819 4750 
Q 2544 4750 2975 4387 
Q 3406 4025 3406 3419 
Q 3406 3131 3298 2873 
Q 3191 2616 2906 2266 
Q 2828 2175 2409 1742 
Q 1991 1309 1228 531 
z
" transform="scale(0.015625)"/>
        <path id="DejaVuSans-31" d="M 794 531 
L 1825 531 
L 1825 4091 
L 703 3866 
L 703 4441 
L 1819 4666 
L 2450 4666 
L 2450 531 
L 3481 531 
L 3481 0 
L 794 0 
L 794 531 
z
" transform="scale(0.015625)"/>
       </defs>
       <use xlink:href="#DejaVuSans-32"/>
       <use xlink:href="#DejaVuSans-31" x="63.623047"/>
      </g>
     </g>
    </g>
    <g id="xtick_3">
     <g id="line2d_5">
      <path d="M 158.528332 247.678125 
L 158.528332 22.318125 
" clip-path="url(#pb34e06cdf7)" style="fill: none; stroke: #b0b0b0; stroke-width: 0.8; stroke-linecap: square"/>
     </g>
     <g id="line2d_6">
      <g>
       <use xlink:href="#meeab2fd727" x="158.528332" y="247.678125" style="stroke: #000000; stroke-width: 0.8"/>
      </g>
     </g>
     <g id="text_3">
      <!-- 39 -->
      <g transform="translate(152.165832 262.276562)scale(0.1 -0.1)">
       <defs>
        <path id="DejaVuSans-39" d="M 703 97 
L 703 672 
Q 941 559 1184 500 
Q 1428 441 1663 441 
Q 2288 441 2617 861 
Q 2947 1281 2994 2138 
Q 2813 1869 2534 1725 
Q 2256 1581 1919 1581 
Q 1219 1581 811 2004 
Q 403 2428 403 3163 
Q 403 3881 828 4315 
Q 1253 4750 1959 4750 
Q 2769 4750 3195 4129 
Q 3622 3509 3622 2328 
Q 3622 1225 3098 567 
Q 2575 -91 1691 -91 
Q 1453 -91 1209 -44 
Q 966 3 703 97 
z
M 1959 2075 
Q 2384 2075 2632 2365 
Q 2881 2656 2881 3163 
Q 2881 3666 2632 3958 
Q 2384 4250 1959 4250 
Q 1534 4250 1286 3958 
Q 1038 3666 1038 3163 
Q 1038 2656 1286 2365 
Q 1534 2075 1959 2075 
z
" transform="scale(0.015625)"/>
       </defs>
       <use xlink:href="#DejaVuSans-33"/>
       <use xlink:href="#DejaVuSans-39" x="63.623047"/>
      </g>
     </g>
    </g>
    <g id="xtick_4">
     <g id="line2d_7">
      <path d="M 190.234117 247.678125 
L 190.234117 22.318125 
" clip-path="url(#pb34e06cdf7)" style="fill: none; stroke: #b0b0b0; stroke-width: 0.8; stroke-linecap: square"/>
     </g>
     <g id="line2d_8">
      <g>
       <use xlink:href="#meeab2fd727" x="190.234117" y="247.678125" style="stroke: #000000; stroke-width: 0.8"/>
      </g>
     </g>
     <g id="text_4">
      <!-- 57 -->
      <g transform="translate(183.871617 262.276562)scale(0.1 -0.1)">
       <defs>
        <path id="DejaVuSans-35" d="M 691 4666 
L 3169 4666 
L 3169 4134 
L 1269 4134 
L 1269 2991 
Q 1406 3038 1543 3061 
Q 1681 3084 1819 3084 
Q 2600 3084 3056 2656 
Q 3513 2228 3513 1497 
Q 3513 744 3044 326 
Q 2575 -91 1722 -91 
Q 1428 -91 1123 -41 
Q 819 9 494 109 
L 494 744 
Q 775 591 1075 516 
Q 1375 441 1709 441 
Q 2250 441 2565 725 
Q 2881 1009 2881 1497 
Q 2881 1984 2565 2268 
Q 2250 2553 1709 2553 
Q 1456 2553 1204 2497 
Q 953 2441 691 2322 
L 691 4666 
z
" transform="scale(0.015625)"/>
        <path id="DejaVuSans-37" d="M 525 4666 
L 3525 4666 
L 3525 4397 
L 1831 0 
L 1172 0 
L 2766 4134 
L 525 4134 
L 525 4666 
z
" transform="scale(0.015625)"/>
       </defs>
       <use xlink:href="#DejaVuSans-35"/>
       <use xlink:href="#DejaVuSans-37" x="63.623047"/>
      </g>
     </g>
    </g>
    <g id="xtick_5">
     <g id="line2d_9">
      <path d="M 221.939902 247.678125 
L 221.939902 22.318125 
" clip-path="url(#pb34e06cdf7)" style="fill: none; stroke: #b0b0b0; stroke-width: 0.8; stroke-linecap: square"/>
     </g>
     <g id="line2d_10">
      <g>
       <use xlink:href="#meeab2fd727" x="221.939902" y="247.678125" style="stroke: #000000; stroke-width: 0.8"/>
      </g>
     </g>
     <g id="text_5">
      <!-- 75 -->
      <g transform="translate(215.577402 262.276562)scale(0.1 -0.1)">
       <use xlink:href="#DejaVuSans-37"/>
       <use xlink:href="#DejaVuSans-35" x="63.623047"/>
      </g>
     </g>
    </g>
    <g id="xtick_6">
     <g id="line2d_11">
      <path d="M 253.645687 247.678125 
L 253.645687 22.318125 
" clip-path="url(#pb34e06cdf7)" style="fill: none; stroke: #b0b0b0; stroke-width: 0.8; stroke-linecap: square"/>
     </g>
     <g id="line2d_12">
      <g>
       <use xlink:href="#meeab2fd727" x="253.645687" y="247.678125" style="stroke: #000000; stroke-width: 0.8"/>
      </g>
     </g>
     <g id="text_6">
      <!-- 93 -->
      <g transform="translate(247.283187 262.276562)scale(0.1 -0.1)">
       <use xlink:href="#DejaVuSans-39"/>
       <use xlink:href="#DejaVuSans-33" x="63.623047"/>
      </g>
     </g>
    </g>
    <g id="xtick_7">
     <g id="line2d_13">
      <path d="M 285.351472 247.678125 
L 285.351472 22.318125 
" clip-path="url(#pb34e06cdf7)" style="fill: none; stroke: #b0b0b0; stroke-width: 0.8; stroke-linecap: square"/>
     </g>
     <g id="line2d_14">
      <g>
       <use xlink:href="#meeab2fd727" x="285.351472" y="247.678125" style="stroke: #000000; stroke-width: 0.8"/>
      </g>
     </g>
     <g id="text_7">
      <!-- 111 -->
      <g transform="translate(275.807722 262.276562)scale(0.1 -0.1)">
       <use xlink:href="#DejaVuSans-31"/>
       <use xlink:href="#DejaVuSans-31" x="63.623047"/>
       <use xlink:href="#DejaVuSans-31" x="127.246094"/>
      </g>
     </g>
    </g>
    <g id="xtick_8">
     <g id="line2d_15">
      <path d="M 317.057257 247.678125 
L 317.057257 22.318125 
" clip-path="url(#pb34e06cdf7)" style="fill: none; stroke: #b0b0b0; stroke-width: 0.8; stroke-linecap: square"/>
     </g>
     <g id="line2d_16">
      <g>
       <use xlink:href="#meeab2fd727" x="317.057257" y="247.678125" style="stroke: #000000; stroke-width: 0.8"/>
      </g>
     </g>
     <g id="text_8">
      <!-- 129 -->
      <g transform="translate(307.513507 262.276562)scale(0.1 -0.1)">
       <use xlink:href="#DejaVuSans-31"/>
       <use xlink:href="#DejaVuSans-32" x="63.623047"/>
       <use xlink:href="#DejaVuSans-39" x="127.246094"/>
      </g>
     </g>
    </g>
    <g id="xtick_9">
     <g id="line2d_17">
      <path d="M 348.763042 247.678125 
L 348.763042 22.318125 
" clip-path="url(#pb34e06cdf7)" style="fill: none; stroke: #b0b0b0; stroke-width: 0.8; stroke-linecap: square"/>
     </g>
     <g id="line2d_18">
      <g>
       <use xlink:href="#meeab2fd727" x="348.763042" y="247.678125" style="stroke: #000000; stroke-width: 0.8"/>
      </g>
     </g>
     <g id="text_9">
      <!-- 147 -->
      <g transform="translate(339.219292 262.276562)scale(0.1 -0.1)">
       <defs>
        <path id="DejaVuSans-34" d="M 2419 4116 
L 825 1625 
L 2419 1625 
L 2419 4116 
z
M 2253 4666 
L 3047 4666 
L 3047 1625 
L 3713 1625 
L 3713 1100 
L 3047 1100 
L 3047 0 
L 2419 0 
L 2419 1100 
L 313 1100 
L 313 1709 
L 2253 4666 
z
" transform="scale(0.015625)"/>
       </defs>
       <use xlink:href="#DejaVuSans-31"/>
       <use xlink:href="#DejaVuSans-34" x="63.623047"/>
       <use xlink:href="#DejaVuSans-37" x="127.246094"/>
      </g>
     </g>
    </g>
    <g id="xtick_10">
     <g id="line2d_19">
      <path d="M 380.468827 247.678125 
L 380.468827 22.318125 
" clip-path="url(#pb34e06cdf7)" style="fill: none; stroke: #b0b0b0; stroke-width: 0.8; stroke-linecap: square"/>
     </g>
     <g id="line2d_20">
      <g>
       <use xlink:href="#meeab2fd727" x="380.468827" y="247.678125" style="stroke: #000000; stroke-width: 0.8"/>
      </g>
     </g>
     <g id="text_10">
      <!-- 165 -->
      <g transform="translate(370.925077 262.276562)scale(0.1 -0.1)">
       <defs>
        <path id="DejaVuSans-36" d="M 2113 2584 
Q 1688 2584 1439 2293 
Q 1191 2003 1191 1497 
Q 1191 994 1439 701 
Q 1688 409 2113 409 
Q 2538 409 2786 701 
Q 3034 994 3034 1497 
Q 3034 2003 2786 2293 
Q 2538 2584 2113 2584 
z
M 3366 4563 
L 3366 3988 
Q 3128 4100 2886 4159 
Q 2644 4219 2406 4219 
Q 1781 4219 1451 3797 
Q 1122 3375 1075 2522 
Q 1259 2794 1537 2939 
Q 1816 3084 2150 3084 
Q 2853 3084 3261 2657 
Q 3669 2231 3669 1497 
Q 3669 778 3244 343 
Q 2819 -91 2113 -91 
Q 1303 -91 875 529 
Q 447 1150 447 2328 
Q 447 3434 972 4092 
Q 1497 4750 2381 4750 
Q 2619 4750 2861 4703 
Q 3103 4656 3366 4563 
z
" transform="scale(0.015625)"/>
       </defs>
       <use xlink:href="#DejaVuSans-31"/>
       <use xlink:href="#DejaVuSans-36" x="63.623047"/>
       <use xlink:href="#DejaVuSans-35" x="127.246094"/>
      </g>
     </g>
    </g>
    <g id="xtick_11">
     <g id="line2d_21">
      <path d="M 412.174613 247.678125 
L 412.174613 22.318125 
" clip-path="url(#pb34e06cdf7)" style="fill: none; stroke: #b0b0b0; stroke-width: 0.8; stroke-linecap: square"/>
     </g>
     <g id="line2d_22">
      <g>
       <use xlink:href="#meeab2fd727" x="412.174613" y="247.678125" style="stroke: #000000; stroke-width: 0.8"/>
      </g>
     </g>
     <g id="text_11">
      <!-- 183 -->
      <g transform="translate(402.630863 262.276562)scale(0.1 -0.1)">
       <defs>
        <path id="DejaVuSans-38" d="M 2034 2216 
Q 1584 2216 1326 1975 
Q 1069 1734 1069 1313 
Q 1069 891 1326 650 
Q 1584 409 2034 409 
Q 2484 409 2743 651 
Q 3003 894 3003 1313 
Q 3003 1734 2745 1975 
Q 2488 2216 2034 2216 
z
M 1403 2484 
Q 997 2584 770 2862 
Q 544 3141 544 3541 
Q 544 4100 942 4425 
Q 1341 4750 2034 4750 
Q 2731 4750 3128 4425 
Q 3525 4100 3525 3541 
Q 3525 3141 3298 2862 
Q 3072 2584 2669 2484 
Q 3125 2378 3379 2068 
Q 3634 1759 3634 1313 
Q 3634 634 3220 271 
Q 2806 -91 2034 -91 
Q 1263 -91 848 271 
Q 434 634 434 1313 
Q 434 1759 690 2068 
Q 947 2378 1403 2484 
z
M 1172 3481 
Q 1172 3119 1398 2916 
Q 1625 2713 2034 2713 
Q 2441 2713 2670 2916 
Q 2900 3119 2900 3481 
Q 2900 3844 2670 4047 
Q 2441 4250 2034 4250 
Q 1625 4250 1398 4047 
Q 1172 3844 1172 3481 
z
" transform="scale(0.015625)"/>
       </defs>
       <use xlink:href="#DejaVuSans-31"/>
       <use xlink:href="#DejaVuSans-38" x="63.623047"/>
       <use xlink:href="#DejaVuSans-33" x="127.246094"/>
      </g>
     </g>
    </g>
    <g id="xtick_12">
     <g id="line2d_23">
      <path d="M 443.880398 247.678125 
L 443.880398 22.318125 
" clip-path="url(#pb34e06cdf7)" style="fill: none; stroke: #b0b0b0; stroke-width: 0.8; stroke-linecap: square"/>
     </g>
     <g id="line2d_24">
      <g>
       <use xlink:href="#meeab2fd727" x="443.880398" y="247.678125" style="stroke: #000000; stroke-width: 0.8"/>
      </g>
     </g>
     <g id="text_12">
      <!-- 201 -->
      <g transform="translate(434.336648 262.276562)scale(0.1 -0.1)">
       <defs>
        <path id="DejaVuSans-30" d="M 2034 4250 
Q 1547 4250 1301 3770 
Q 1056 3291 1056 2328 
Q 1056 1369 1301 889 
Q 1547 409 2034 409 
Q 2525 409 2770 889 
Q 3016 1369 3016 2328 
Q 3016 3291 2770 3770 
Q 2525 4250 2034 4250 
z
M 2034 4750 
Q 2819 4750 3233 4129 
Q 3647 3509 3647 2328 
Q 3647 1150 3233 529 
Q 2819 -91 2034 -91 
Q 1250 -91 836 529 
Q 422 1150 422 2328 
Q 422 3509 836 4129 
Q 1250 4750 2034 4750 
z
" transform="scale(0.015625)"/>
       </defs>
       <use xlink:href="#DejaVuSans-32"/>
       <use xlink:href="#DejaVuSans-30" x="63.623047"/>
       <use xlink:href="#DejaVuSans-31" x="127.246094"/>
      </g>
     </g>
    </g>
    <g id="xtick_13">
     <g id="line2d_25">
      <path d="M 475.586183 247.678125 
L 475.586183 22.318125 
" clip-path="url(#pb34e06cdf7)" style="fill: none; stroke: #b0b0b0; stroke-width: 0.8; stroke-linecap: square"/>
     </g>
     <g id="line2d_26">
      <g>
       <use xlink:href="#meeab2fd727" x="475.586183" y="247.678125" style="stroke: #000000; stroke-width: 0.8"/>
      </g>
     </g>
     <g id="text_13">
      <!-- 219 -->
      <g transform="translate(466.042433 262.276562)scale(0.1 -0.1)">
       <use xlink:href="#DejaVuSans-32"/>
       <use xlink:href="#DejaVuSans-31" x="63.623047"/>
       <use xlink:href="#DejaVuSans-39" x="127.246094"/>
      </g>
     </g>
    </g>
    <g id="xtick_14">
     <g id="line2d_27">
      <path d="M 507.291968 247.678125 
L 507.291968 22.318125 
" clip-path="url(#pb34e06cdf7)" style="fill: none; stroke: #b0b0b0; stroke-width: 0.8; stroke-linecap: square"/>
     </g>
     <g id="line2d_28">
      <g>
       <use xlink:href="#meeab2fd727" x="507.291968" y="247.678125" style="stroke: #000000; stroke-width: 0.8"/>
      </g>
     </g>
     <g id="text_14">
      <!-- 237 -->
      <g transform="translate(497.748218 262.276562)scale(0.1 -0.1)">
       <use xlink:href="#DejaVuSans-32"/>
       <use xlink:href="#DejaVuSans-33" x="63.623047"/>
       <use xlink:href="#DejaVuSans-37" x="127.246094"/>
      </g>
     </g>
    </g>
    <g id="xtick_15">
     <g id="line2d_29">
      <path d="M 538.997753 247.678125 
L 538.997753 22.318125 
" clip-path="url(#pb34e06cdf7)" style="fill: none; stroke: #b0b0b0; stroke-width: 0.8; stroke-linecap: square"/>
     </g>
     <g id="line2d_30">
      <g>
       <use xlink:href="#meeab2fd727" x="538.997753" y="247.678125" style="stroke: #000000; stroke-width: 0.8"/>
      </g>
     </g>
     <g id="text_15">
      <!-- 255 -->
      <g transform="translate(529.454003 262.276562)scale(0.1 -0.1)">
       <use xlink:href="#DejaVuSans-32"/>
       <use xlink:href="#DejaVuSans-35" x="63.623047"/>
       <use xlink:href="#DejaVuSans-35" x="127.246094"/>
      </g>
     </g>
    </g>
    <g id="xtick_16">
     <g id="line2d_31">
      <path d="M 570.703538 247.678125 
L 570.703538 22.318125 
" clip-path="url(#pb34e06cdf7)" style="fill: none; stroke: #b0b0b0; stroke-width: 0.8; stroke-linecap: square"/>
     </g>
     <g id="line2d_32">
      <g>
       <use xlink:href="#meeab2fd727" x="570.703538" y="247.678125" style="stroke: #000000; stroke-width: 0.8"/>
      </g>
     </g>
     <g id="text_16">
      <!-- 273 -->
      <g transform="translate(561.159788 262.276562)scale(0.1 -0.1)">
       <use xlink:href="#DejaVuSans-32"/>
       <use xlink:href="#DejaVuSans-37" x="63.623047"/>
       <use xlink:href="#DejaVuSans-33" x="127.246094"/>
      </g>
     </g>
    </g>
    <g id="xtick_17">
     <g id="line2d_33">
      <path d="M 602.409323 247.678125 
L 602.409323 22.318125 
" clip-path="url(#pb34e06cdf7)" style="fill: none; stroke: #b0b0b0; stroke-width: 0.8; stroke-linecap: square"/>
     </g>
     <g id="line2d_34">
      <g>
       <use xlink:href="#meeab2fd727" x="602.409323" y="247.678125" style="stroke: #000000; stroke-width: 0.8"/>
      </g>
     </g>
     <g id="text_17">
      <!-- 291 -->
      <g transform="translate(592.865573 262.276562)scale(0.1 -0.1)">
       <use xlink:href="#DejaVuSans-32"/>
       <use xlink:href="#DejaVuSans-39" x="63.623047"/>
       <use xlink:href="#DejaVuSans-31" x="127.246094"/>
      </g>
     </g>
    </g>
    <g id="xtick_18">
     <g id="line2d_35">
      <path d="M 634.115108 247.678125 
L 634.115108 22.318125 
" clip-path="url(#pb34e06cdf7)" style="fill: none; stroke: #b0b0b0; stroke-width: 0.8; stroke-linecap: square"/>
     </g>
     <g id="line2d_36">
      <g>
       <use xlink:href="#meeab2fd727" x="634.115108" y="247.678125" style="stroke: #000000; stroke-width: 0.8"/>
      </g>
     </g>
     <g id="text_18">
      <!-- 309 -->
      <g transform="translate(624.571358 262.276562)scale(0.1 -0.1)">
       <use xlink:href="#DejaVuSans-33"/>
       <use xlink:href="#DejaVuSans-30" x="63.623047"/>
       <use xlink:href="#DejaVuSans-39" x="127.246094"/>
      </g>
     </g>
    </g>
    <g id="xtick_19">
     <g id="line2d_37">
      <path d="M 665.820894 247.678125 
L 665.820894 22.318125 
" clip-path="url(#pb34e06cdf7)" style="fill: none; stroke: #b0b0b0; stroke-width: 0.8; stroke-linecap: square"/>
     </g>
     <g id="line2d_38">
      <g>
       <use xlink:href="#meeab2fd727" x="665.820894" y="247.678125" style="stroke: #000000; stroke-width: 0.8"/>
      </g>
     </g>
     <g id="text_19">
      <!-- 327 -->
      <g transform="translate(656.277144 262.276562)scale(0.1 -0.1)">
       <use xlink:href="#DejaVuSans-33"/>
       <use xlink:href="#DejaVuSans-32" x="63.623047"/>
       <use xlink:href="#DejaVuSans-37" x="127.246094"/>
      </g>
     </g>
    </g>
    <g id="text_20">
     <!-- Period step, hours -->
     <g transform="translate(340.525 275.954687)scale(0.1 -0.1)">
      <defs>
       <path id="DejaVuSans-50" d="M 1259 4147 
L 1259 2394 
L 2053 2394 
Q 2494 2394 2734 2622 
Q 2975 2850 2975 3272 
Q 2975 3691 2734 3919 
Q 2494 4147 2053 4147 
L 1259 4147 
z
M 628 4666 
L 2053 4666 
Q 2838 4666 3239 4311 
Q 3641 3956 3641 3272 
Q 3641 2581 3239 2228 
Q 2838 1875 2053 1875 
L 1259 1875 
L 1259 0 
L 628 0 
L 628 4666 
z
" transform="scale(0.015625)"/>
       <path id="DejaVuSans-65" d="M 3597 1894 
L 3597 1613 
L 953 1613 
Q 991 1019 1311 708 
Q 1631 397 2203 397 
Q 2534 397 2845 478 
Q 3156 559 3463 722 
L 3463 178 
Q 3153 47 2828 -22 
Q 2503 -91 2169 -91 
Q 1331 -91 842 396 
Q 353 884 353 1716 
Q 353 2575 817 3079 
Q 1281 3584 2069 3584 
Q 2775 3584 3186 3129 
Q 3597 2675 3597 1894 
z
M 3022 2063 
Q 3016 2534 2758 2815 
Q 2500 3097 2075 3097 
Q 1594 3097 1305 2825 
Q 1016 2553 972 2059 
L 3022 2063 
z
" transform="scale(0.015625)"/>
       <path id="DejaVuSans-72" d="M 2631 2963 
Q 2534 3019 2420 3045 
Q 2306 3072 2169 3072 
Q 1681 3072 1420 2755 
Q 1159 2438 1159 1844 
L 1159 0 
L 581 0 
L 581 3500 
L 1159 3500 
L 1159 2956 
Q 1341 3275 1631 3429 
Q 1922 3584 2338 3584 
Q 2397 3584 2469 3576 
Q 2541 3569 2628 3553 
L 2631 2963 
z
" transform="scale(0.015625)"/>
       <path id="DejaVuSans-69" d="M 603 3500 
L 1178 3500 
L 1178 0 
L 603 0 
L 603 3500 
z
M 603 4863 
L 1178 4863 
L 1178 4134 
L 603 4134 
L 603 4863 
z
" transform="scale(0.015625)"/>
       <path id="DejaVuSans-6f" d="M 1959 3097 
Q 1497 3097 1228 2736 
Q 959 2375 959 1747 
Q 959 1119 1226 758 
Q 1494 397 1959 397 
Q 2419 397 2687 759 
Q 2956 1122 2956 1747 
Q 2956 2369 2687 2733 
Q 2419 3097 1959 3097 
z
M 1959 3584 
Q 2709 3584 3137 3096 
Q 3566 2609 3566 1747 
Q 3566 888 3137 398 
Q 2709 -91 1959 -91 
Q 1206 -91 779 398 
Q 353 888 353 1747 
Q 353 2609 779 3096 
Q 1206 3584 1959 3584 
z
" transform="scale(0.015625)"/>
       <path id="DejaVuSans-64" d="M 2906 2969 
L 2906 4863 
L 3481 4863 
L 3481 0 
L 2906 0 
L 2906 525 
Q 2725 213 2448 61 
Q 2172 -91 1784 -91 
Q 1150 -91 751 415 
Q 353 922 353 1747 
Q 353 2572 751 3078 
Q 1150 3584 1784 3584 
Q 2172 3584 2448 3432 
Q 2725 3281 2906 2969 
z
M 947 1747 
Q 947 1113 1208 752 
Q 1469 391 1925 391 
Q 2381 391 2643 752 
Q 2906 1113 2906 1747 
Q 2906 2381 2643 2742 
Q 2381 3103 1925 3103 
Q 1469 3103 1208 2742 
Q 947 2381 947 1747 
z
" transform="scale(0.015625)"/>
       <path id="DejaVuSans-20" transform="scale(0.015625)"/>
       <path id="DejaVuSans-73" d="M 2834 3397 
L 2834 2853 
Q 2591 2978 2328 3040 
Q 2066 3103 1784 3103 
Q 1356 3103 1142 2972 
Q 928 2841 928 2578 
Q 928 2378 1081 2264 
Q 1234 2150 1697 2047 
L 1894 2003 
Q 2506 1872 2764 1633 
Q 3022 1394 3022 966 
Q 3022 478 2636 193 
Q 2250 -91 1575 -91 
Q 1294 -91 989 -36 
Q 684 19 347 128 
L 347 722 
Q 666 556 975 473 
Q 1284 391 1588 391 
Q 1994 391 2212 530 
Q 2431 669 2431 922 
Q 2431 1156 2273 1281 
Q 2116 1406 1581 1522 
L 1381 1569 
Q 847 1681 609 1914 
Q 372 2147 372 2553 
Q 372 3047 722 3315 
Q 1072 3584 1716 3584 
Q 2034 3584 2315 3537 
Q 2597 3491 2834 3397 
z
" transform="scale(0.015625)"/>
       <path id="DejaVuSans-74" d="M 1172 4494 
L 1172 3500 
L 2356 3500 
L 2356 3053 
L 1172 3053 
L 1172 1153 
Q 1172 725 1289 603 
Q 1406 481 1766 481 
L 2356 481 
L 2356 0 
L 1766 0 
Q 1100 0 847 248 
Q 594 497 594 1153 
L 594 3053 
L 172 3053 
L 172 3500 
L 594 3500 
L 594 4494 
L 1172 4494 
z
" transform="scale(0.015625)"/>
       <path id="DejaVuSans-70" d="M 1159 525 
L 1159 -1331 
L 581 -1331 
L 581 3500 
L 1159 3500 
L 1159 2969 
Q 1341 3281 1617 3432 
Q 1894 3584 2278 3584 
Q 2916 3584 3314 3078 
Q 3713 2572 3713 1747 
Q 3713 922 3314 415 
Q 2916 -91 2278 -91 
Q 1894 -91 1617 61 
Q 1341 213 1159 525 
z
M 3116 1747 
Q 3116 2381 2855 2742 
Q 2594 3103 2138 3103 
Q 1681 3103 1420 2742 
Q 1159 2381 1159 1747 
Q 1159 1113 1420 752 
Q 1681 391 2138 391 
Q 2594 391 2855 752 
Q 3116 1113 3116 1747 
z
" transform="scale(0.015625)"/>
       <path id="DejaVuSans-2c" d="M 750 794 
L 1409 794 
L 1409 256 
L 897 -744 
L 494 -744 
L 750 256 
L 750 794 
z
" transform="scale(0.015625)"/>
       <path id="DejaVuSans-68" d="M 3513 2113 
L 3513 0 
L 2938 0 
L 2938 2094 
Q 2938 2591 2744 2837 
Q 2550 3084 2163 3084 
Q 1697 3084 1428 2787 
Q 1159 2491 1159 1978 
L 1159 0 
L 581 0 
L 581 4863 
L 1159 4863 
L 1159 2956 
Q 1366 3272 1645 3428 
Q 1925 3584 2291 3584 
Q 2894 3584 3203 3211 
Q 3513 2838 3513 2113 
z
" transform="scale(0.015625)"/>
       <path id="DejaVuSans-75" d="M 544 1381 
L 544 3500 
L 1119 3500 
L 1119 1403 
Q 1119 906 1312 657 
Q 1506 409 1894 409 
Q 2359 409 2629 706 
Q 2900 1003 2900 1516 
L 2900 3500 
L 3475 3500 
L 3475 0 
L 2900 0 
L 2900 538 
Q 2691 219 2414 64 
Q 2138 -91 1772 -91 
Q 1169 -91 856 284 
Q 544 659 544 1381 
z
M 1991 3584 
L 1991 3584 
z
" transform="scale(0.015625)"/>
      </defs>
      <use xlink:href="#DejaVuSans-50"/>
      <use xlink:href="#DejaVuSans-65" x="56.677734"/>
      <use xlink:href="#DejaVuSans-72" x="118.201172"/>
      <use xlink:href="#DejaVuSans-69" x="159.314453"/>
      <use xlink:href="#DejaVuSans-6f" x="187.097656"/>
      <use xlink:href="#DejaVuSans-64" x="248.279297"/>
      <use xlink:href="#DejaVuSans-20" x="311.755859"/>
      <use xlink:href="#DejaVuSans-73" x="343.542969"/>
      <use xlink:href="#DejaVuSans-74" x="395.642578"/>
      <use xlink:href="#DejaVuSans-65" x="434.851562"/>
      <use xlink:href="#DejaVuSans-70" x="496.375"/>
      <use xlink:href="#DejaVuSans-2c" x="559.851562"/>
      <use xlink:href="#DejaVuSans-20" x="591.638672"/>
      <use xlink:href="#DejaVuSans-68" x="623.425781"/>
      <use xlink:href="#DejaVuSans-6f" x="686.804688"/>
      <use xlink:href="#DejaVuSans-75" x="747.986328"/>
      <use xlink:href="#DejaVuSans-72" x="811.365234"/>
      <use xlink:href="#DejaVuSans-73" x="852.478516"/>
     </g>
    </g>
   </g>
   <g id="matplotlib.axis_2">
    <g id="ytick_1">
     <g id="line2d_39">
      <path d="M 66.053125 237.156557 
L 705.453125 237.156557 
" clip-path="url(#pb34e06cdf7)" style="fill: none; stroke: #b0b0b0; stroke-width: 0.8; stroke-linecap: square"/>
     </g>
     <g id="line2d_40">
      <defs>
       <path id="m703179c1b4" d="M 0 0 
L -3.5 0 
" style="stroke: #000000; stroke-width: 0.8"/>
      </defs>
      <g>
       <use xlink:href="#m703179c1b4" x="66.053125" y="237.156557" style="stroke: #000000; stroke-width: 0.8"/>
      </g>
     </g>
     <g id="text_21">
      <!-- 210900 -->
      <g transform="translate(20.878125 240.955776)scale(0.1 -0.1)">
       <use xlink:href="#DejaVuSans-32"/>
       <use xlink:href="#DejaVuSans-31" x="63.623047"/>
       <use xlink:href="#DejaVuSans-30" x="127.246094"/>
       <use xlink:href="#DejaVuSans-39" x="190.869141"/>
       <use xlink:href="#DejaVuSans-30" x="254.492188"/>
       <use xlink:href="#DejaVuSans-30" x="318.115234"/>
      </g>
     </g>
    </g>
    <g id="ytick_2">
     <g id="line2d_41">
      <path d="M 66.053125 192.401471 
L 705.453125 192.401471 
" clip-path="url(#pb34e06cdf7)" style="fill: none; stroke: #b0b0b0; stroke-width: 0.8; stroke-linecap: square"/>
     </g>
     <g id="line2d_42">
      <g>
       <use xlink:href="#m703179c1b4" x="66.053125" y="192.401471" style="stroke: #000000; stroke-width: 0.8"/>
      </g>
     </g>
     <g id="text_22">
      <!-- 210950 -->
      <g transform="translate(20.878125 196.20069)scale(0.1 -0.1)">
       <use xlink:href="#DejaVuSans-32"/>
       <use xlink:href="#DejaVuSans-31" x="63.623047"/>
       <use xlink:href="#DejaVuSans-30" x="127.246094"/>
       <use xlink:href="#DejaVuSans-39" x="190.869141"/>
       <use xlink:href="#DejaVuSans-35" x="254.492188"/>
       <use xlink:href="#DejaVuSans-30" x="318.115234"/>
      </g>
     </g>
    </g>
    <g id="ytick_3">
     <g id="line2d_43">
      <path d="M 66.053125 147.646385 
L 705.453125 147.646385 
" clip-path="url(#pb34e06cdf7)" style="fill: none; stroke: #b0b0b0; stroke-width: 0.8; stroke-linecap: square"/>
     </g>
     <g id="line2d_44">
      <g>
       <use xlink:href="#m703179c1b4" x="66.053125" y="147.646385" style="stroke: #000000; stroke-width: 0.8"/>
      </g>
     </g>
     <g id="text_23">
      <!-- 211000 -->
      <g transform="translate(20.878125 151.445603)scale(0.1 -0.1)">
       <use xlink:href="#DejaVuSans-32"/>
       <use xlink:href="#DejaVuSans-31" x="63.623047"/>
       <use xlink:href="#DejaVuSans-31" x="127.246094"/>
       <use xlink:href="#DejaVuSans-30" x="190.869141"/>
       <use xlink:href="#DejaVuSans-30" x="254.492188"/>
       <use xlink:href="#DejaVuSans-30" x="318.115234"/>
      </g>
     </g>
    </g>
    <g id="ytick_4">
     <g id="line2d_45">
      <path d="M 66.053125 102.891298 
L 705.453125 102.891298 
" clip-path="url(#pb34e06cdf7)" style="fill: none; stroke: #b0b0b0; stroke-width: 0.8; stroke-linecap: square"/>
     </g>
     <g id="line2d_46">
      <g>
       <use xlink:href="#m703179c1b4" x="66.053125" y="102.891298" style="stroke: #000000; stroke-width: 0.8"/>
      </g>
     </g>
     <g id="text_24">
      <!-- 211050 -->
      <g transform="translate(20.878125 106.690517)scale(0.1 -0.1)">
       <use xlink:href="#DejaVuSans-32"/>
       <use xlink:href="#DejaVuSans-31" x="63.623047"/>
       <use xlink:href="#DejaVuSans-31" x="127.246094"/>
       <use xlink:href="#DejaVuSans-30" x="190.869141"/>
       <use xlink:href="#DejaVuSans-35" x="254.492188"/>
       <use xlink:href="#DejaVuSans-30" x="318.115234"/>
      </g>
     </g>
    </g>
    <g id="ytick_5">
     <g id="line2d_47">
      <path d="M 66.053125 58.136212 
L 705.453125 58.136212 
" clip-path="url(#pb34e06cdf7)" style="fill: none; stroke: #b0b0b0; stroke-width: 0.8; stroke-linecap: square"/>
     </g>
     <g id="line2d_48">
      <g>
       <use xlink:href="#m703179c1b4" x="66.053125" y="58.136212" style="stroke: #000000; stroke-width: 0.8"/>
      </g>
     </g>
     <g id="text_25">
      <!-- 211100 -->
      <g transform="translate(20.878125 61.93543)scale(0.1 -0.1)">
       <use xlink:href="#DejaVuSans-32"/>
       <use xlink:href="#DejaVuSans-31" x="63.623047"/>
       <use xlink:href="#DejaVuSans-31" x="127.246094"/>
       <use xlink:href="#DejaVuSans-31" x="190.869141"/>
       <use xlink:href="#DejaVuSans-30" x="254.492188"/>
       <use xlink:href="#DejaVuSans-30" x="318.115234"/>
      </g>
     </g>
    </g>
    <g id="text_26">
     <!-- TORN -->
     <g transform="translate(14.798438 149.202812)rotate(-90)scale(0.1 -0.1)">
      <defs>
       <path id="DejaVuSans-54" d="M -19 4666 
L 3928 4666 
L 3928 4134 
L 2272 4134 
L 2272 0 
L 1638 0 
L 1638 4134 
L -19 4134 
L -19 4666 
z
" transform="scale(0.015625)"/>
       <path id="DejaVuSans-4f" d="M 2522 4238 
Q 1834 4238 1429 3725 
Q 1025 3213 1025 2328 
Q 1025 1447 1429 934 
Q 1834 422 2522 422 
Q 3209 422 3611 934 
Q 4013 1447 4013 2328 
Q 4013 3213 3611 3725 
Q 3209 4238 2522 4238 
z
M 2522 4750 
Q 3503 4750 4090 4092 
Q 4678 3434 4678 2328 
Q 4678 1225 4090 567 
Q 3503 -91 2522 -91 
Q 1538 -91 948 565 
Q 359 1222 359 2328 
Q 359 3434 948 4092 
Q 1538 4750 2522 4750 
z
" transform="scale(0.015625)"/>
       <path id="DejaVuSans-52" d="M 2841 2188 
Q 3044 2119 3236 1894 
Q 3428 1669 3622 1275 
L 4263 0 
L 3584 0 
L 2988 1197 
Q 2756 1666 2539 1819 
Q 2322 1972 1947 1972 
L 1259 1972 
L 1259 0 
L 628 0 
L 628 4666 
L 2053 4666 
Q 2853 4666 3247 4331 
Q 3641 3997 3641 3322 
Q 3641 2881 3436 2590 
Q 3231 2300 2841 2188 
z
M 1259 4147 
L 1259 2491 
L 2053 2491 
Q 2509 2491 2742 2702 
Q 2975 2913 2975 3322 
Q 2975 3731 2742 3939 
Q 2509 4147 2053 4147 
L 1259 4147 
z
" transform="scale(0.015625)"/>
       <path id="DejaVuSans-4e" d="M 628 4666 
L 1478 4666 
L 3547 763 
L 3547 4666 
L 4159 4666 
L 4159 0 
L 3309 0 
L 1241 3903 
L 1241 0 
L 628 0 
L 628 4666 
z
" transform="scale(0.015625)"/>
      </defs>
      <use xlink:href="#DejaVuSans-54"/>
      <use xlink:href="#DejaVuSans-4f" x="61.083984"/>
      <use xlink:href="#DejaVuSans-52" x="139.794922"/>
      <use xlink:href="#DejaVuSans-4e" x="209.277344"/>
     </g>
    </g>
   </g>
   <g id="line2d_49">
    <path d="M 95.116761 32.561761 
L 100.401059 34.354994 
L 105.685356 36.415685 
L 110.969654 37.040361 
L 116.253951 38.590276 
L 121.538249 40.600281 
L 126.822546 41.879294 
L 132.106844 43.239718 
L 137.391142 44.874214 
L 142.675439 46.476204 
L 147.959737 48.030916 
L 153.244034 49.868402 
L 158.528332 51.256102 
L 163.812629 52.714975 
L 169.096927 54.17304 
L 174.381224 55.835012 
L 179.665522 57.67112 
L 184.949819 58.919506 
L 190.234117 60.080837 
L 195.518414 61.560064 
L 200.802712 63.095117 
L 206.087009 64.05954 
L 211.371307 65.906949 
L 216.655604 67.412186 
L 221.939902 69.170472 
L 227.224199 70.596663 
L 232.508497 71.777171 
L 237.792794 73.323395 
L 243.077092 74.697473 
L 248.361389 75.970796 
L 253.645687 76.935434 
L 258.929985 78.769707 
L 264.214282 80.682164 
L 269.49858 81.253684 
L 274.782877 82.185378 
L 280.067175 84.758877 
L 285.351472 85.915088 
L 290.63577 88.491508 
L 295.920067 88.947132 
L 301.204365 89.70443 
L 306.488662 91.673949 
L 311.77296 94.46003 
L 317.057257 95.776514 
L 322.341555 96.573757 
L 327.625852 97.416448 
L 332.91015 99.134004 
L 338.194447 99.627152 
L 343.478745 101.9143 
L 348.763042 104.977171 
L 354.04734 106.630681 
L 359.331637 107.788284 
L 364.615935 109.246454 
L 369.900232 109.457966 
L 375.18453 110.103786 
L 380.468827 110.261339 
L 385.753125 110.529979 
L 391.037423 111.040247 
L 396.32172 111.39907 
L 401.606018 112.751176 
L 406.890315 113.27377 
L 412.174613 114.568365 
L 417.45891 115.993784 
L 422.743208 118.782967 
L 428.027505 119.512158 
L 433.311803 120.492642 
L 438.5961 120.433182 
L 443.880398 120.343206 
L 449.164695 120.445901 
L 454.448993 121.303738 
L 459.73329 121.422108 
L 465.017588 121.700384 
L 470.301885 121.889976 
L 475.586183 122.192726 
L 480.87048 123.194827 
L 486.154778 124.154319 
L 491.439075 124.507128 
L 496.723373 125.385757 
L 502.00767 126.035479 
L 507.291968 126.84331 
L 512.576265 127.382921 
L 517.860563 128.257885 
L 523.144861 129.881143 
L 528.429158 131.257362 
L 533.713456 134.800417 
L 538.997753 135.839023 
L 544.282051 136.795408 
L 549.566348 137.553568 
L 554.850646 137.85616 
L 560.134943 138.0661 
L 565.419241 138.364246 
L 570.703538 138.6775 
L 575.987836 138.769558 
L 581.272133 139.477036 
L 586.556431 139.917668 
L 591.840728 140.224185 
L 597.125026 140.805244 
L 602.409323 141.144788 
L 607.693621 141.64572 
L 612.977918 142.742114 
L 618.262216 144.501609 
L 623.546513 146.056705 
L 628.830811 147.151201 
L 634.115108 147.9056 
L 639.399406 148.33118 
L 644.683704 148.88849 
L 649.968001 149.615621 
L 655.252299 150.787831 
L 660.536596 151.681267 
L 665.820894 152.211497 
L 671.105191 153.682466 
L 676.389489 154.653695 
" clip-path="url(#pb34e06cdf7)" style="fill: none; stroke: #008000; stroke-width: 1.5; stroke-linecap: square"/>
   </g>
   <g id="line2d_50">
    <path d="M 95.116761 237.434489 
L 100.401059 139.114683 
L 105.685356 107.228249 
L 110.969654 89.561806 
L 116.253951 81.7125 
L 121.538249 76.69301 
L 126.822546 72.109545 
L 132.106844 70.193216 
L 137.391142 68.955006 
L 142.675439 67.684804 
L 147.959737 67.228601 
L 153.244034 67.989559 
L 158.528332 67.920551 
L 163.812629 67.847296 
L 169.096927 69.077506 
L 174.381224 69.481365 
L 179.665522 70.690656 
L 184.949819 71.333868 
L 190.234117 71.517861 
L 195.518414 71.901102 
L 200.802712 73.269479 
L 206.087009 73.49155 
L 211.371307 75.810502 
L 216.655604 76.798691 
L 221.939902 78.724749 
L 227.224199 78.847335 
L 232.508497 80.672531 
L 237.792794 81.830362 
L 243.077092 82.453285 
L 248.361389 83.024673 
L 253.645687 84.29106 
L 258.929985 86.50764 
L 264.214282 87.449594 
L 269.49858 88.063051 
L 274.782877 88.887633 
L 280.067175 91.316469 
L 285.351472 92.40345 
L 290.63577 94.100246 
L 295.920067 94.69203 
L 301.204365 95.884047 
L 306.488662 97.853566 
L 311.77296 100.531364 
L 317.057257 102.109457 
L 322.341555 101.743905 
L 327.625852 102.569429 
L 332.91015 104.082326 
L 338.194447 104.575474 
L 343.478745 106.604138 
L 348.763042 109.667009 
L 354.04734 111.505458 
L 359.331637 112.768742 
L 364.615935 113.149295 
L 369.900232 113.360807 
L 375.18453 114.777987 
L 380.468827 114.93554 
L 385.753125 114.815057 
L 391.037423 115.325325 
L 396.32172 115.684147 
L 401.606018 116.442975 
L 406.890315 116.821934 
L 412.174613 118.116528 
L 417.45891 119.472717 
L 422.743208 122.2619 
L 428.027505 123.305854 
L 433.311803 123.315835 
L 438.5961 123.256376 
L 443.880398 123.351338 
L 449.164695 123.318606 
L 454.448993 124.176443 
L 459.73329 124.194104 
L 465.017588 124.47238 
L 470.301885 125.110588 
L 475.586183 125.413338 
L 480.87048 126.415438 
L 486.154778 127.357763 
L 491.439075 127.816252 
L 496.723373 128.694881 
L 502.00767 129.344603 
L 507.291968 130.152435 
L 512.576265 131.140665 
L 517.860563 132.015629 
L 523.144861 133.638887 
L 528.429158 135.015106 
L 533.713456 138.550586 
L 538.997753 139.589193 
L 544.282051 140.545577 
L 549.566348 140.333234 
L 554.850646 140.178236 
L 560.134943 140.388175 
L 565.419241 140.686321 
L 570.703538 140.999575 
L 575.987836 141.022402 
L 581.272133 141.729881 
L 586.556431 142.170513 
L 591.840728 142.47703 
L 597.125026 142.961294 
L 602.409323 143.300838 
L 607.693621 143.80177 
L 612.977918 144.898164 
L 618.262216 146.842598 
L 623.546513 148.397694 
L 628.830811 149.49219 
L 634.115108 150.246589 
L 639.399406 150.565057 
L 644.683704 151.122367 
L 649.968001 151.849497 
L 655.252299 153.021708 
L 660.536596 154.180443 
L 665.820894 154.710673 
L 671.105191 156.181642 
L 676.389489 157.152871 
" clip-path="url(#pb34e06cdf7)" style="fill: none; stroke: #0000ff; stroke-width: 1.5; stroke-linecap: square"/>
   </g>
   <g id="line2d_51">
    <path d="M 147.959737 67.228601 
L 147.959737 67.228601 
" clip-path="url(#pb34e06cdf7)" style="fill: none"/>
    <defs>
     <path id="m47ae281d6a" d="M -10 10 
L 10 -10 
M -10 -10 
L 10 10 
" style="stroke: #ff0000"/>
    </defs>
    <g clip-path="url(#pb34e06cdf7)">
     <use xlink:href="#m47ae281d6a" x="147.959737" y="67.228601" style="fill: #ff0000; stroke: #ff0000"/>
     <use xlink:href="#m47ae281d6a" x="147.959737" y="67.228601" style="fill: #ff0000; stroke: #ff0000"/>
    </g>
   </g>
   <g id="patch_3">
    <path d="M 66.053125 247.678125 
L 66.053125 22.318125 
" style="fill: none; stroke: #000000; stroke-width: 0.8; stroke-linejoin: miter; stroke-linecap: square"/>
   </g>
   <g id="patch_4">
    <path d="M 705.453125 247.678125 
L 705.453125 22.318125 
" style="fill: none; stroke: #000000; stroke-width: 0.8; stroke-linejoin: miter; stroke-linecap: square"/>
   </g>
   <g id="patch_5">
    <path d="M 66.053125 247.678125 
L 705.453125 247.678125 
" style="fill: none; stroke: #000000; stroke-width: 0.8; stroke-linejoin: miter; stroke-linecap: square"/>
   </g>
   <g id="patch_6">
    <path d="M 66.053125 22.318125 
L 705.453125 22.318125 
" style="fill: none; stroke: #000000; stroke-width: 0.8; stroke-linejoin: miter; stroke-linecap: square"/>
   </g>
   <g id="text_27">
    <!-- Optimal Period: 33 h -->
    <g transform="translate(140.914007 94.081653)scale(0.1 -0.1)">
     <defs>
      <path id="DejaVuSans-6d" d="M 3328 2828 
Q 3544 3216 3844 3400 
Q 4144 3584 4550 3584 
Q 5097 3584 5394 3201 
Q 5691 2819 5691 2113 
L 5691 0 
L 5113 0 
L 5113 2094 
Q 5113 2597 4934 2840 
Q 4756 3084 4391 3084 
Q 3944 3084 3684 2787 
Q 3425 2491 3425 1978 
L 3425 0 
L 2847 0 
L 2847 2094 
Q 2847 2600 2669 2842 
Q 2491 3084 2119 3084 
Q 1678 3084 1418 2786 
Q 1159 2488 1159 1978 
L 1159 0 
L 581 0 
L 581 3500 
L 1159 3500 
L 1159 2956 
Q 1356 3278 1631 3431 
Q 1906 3584 2284 3584 
Q 2666 3584 2933 3390 
Q 3200 3197 3328 2828 
z
" transform="scale(0.015625)"/>
      <path id="DejaVuSans-61" d="M 2194 1759 
Q 1497 1759 1228 1600 
Q 959 1441 959 1056 
Q 959 750 1161 570 
Q 1363 391 1709 391 
Q 2188 391 2477 730 
Q 2766 1069 2766 1631 
L 2766 1759 
L 2194 1759 
z
M 3341 1997 
L 3341 0 
L 2766 0 
L 2766 531 
Q 2569 213 2275 61 
Q 1981 -91 1556 -91 
Q 1019 -91 701 211 
Q 384 513 384 1019 
Q 384 1609 779 1909 
Q 1175 2209 1959 2209 
L 2766 2209 
L 2766 2266 
Q 2766 2663 2505 2880 
Q 2244 3097 1772 3097 
Q 1472 3097 1187 3025 
Q 903 2953 641 2809 
L 641 3341 
Q 956 3463 1253 3523 
Q 1550 3584 1831 3584 
Q 2591 3584 2966 3190 
Q 3341 2797 3341 1997 
z
" transform="scale(0.015625)"/>
      <path id="DejaVuSans-6c" d="M 603 4863 
L 1178 4863 
L 1178 0 
L 603 0 
L 603 4863 
z
" transform="scale(0.015625)"/>
      <path id="DejaVuSans-3a" d="M 750 794 
L 1409 794 
L 1409 0 
L 750 0 
L 750 794 
z
M 750 3309 
L 1409 3309 
L 1409 2516 
L 750 2516 
L 750 3309 
z
" transform="scale(0.015625)"/>
     </defs>
     <use xlink:href="#DejaVuSans-4f"/>
     <use xlink:href="#DejaVuSans-70" x="78.710938"/>
     <use xlink:href="#DejaVuSans-74" x="142.1875"/>
     <use xlink:href="#DejaVuSans-69" x="181.396484"/>
     <use xlink:href="#DejaVuSans-6d" x="209.179688"/>
     <use xlink:href="#DejaVuSans-61" x="306.591797"/>
     <use xlink:href="#DejaVuSans-6c" x="367.871094"/>
     <use xlink:href="#DejaVuSans-20" x="395.654297"/>
     <use xlink:href="#DejaVuSans-50" x="427.441406"/>
     <use xlink:href="#DejaVuSans-65" x="484.119141"/>
     <use xlink:href="#DejaVuSans-72" x="545.642578"/>
     <use xlink:href="#DejaVuSans-69" x="586.755859"/>
     <use xlink:href="#DejaVuSans-6f" x="614.539062"/>
     <use xlink:href="#DejaVuSans-64" x="675.720703"/>
     <use xlink:href="#DejaVuSans-3a" x="739.197266"/>
     <use xlink:href="#DejaVuSans-20" x="772.888672"/>
     <use xlink:href="#DejaVuSans-33" x="804.675781"/>
     <use xlink:href="#DejaVuSans-33" x="868.298828"/>
     <use xlink:href="#DejaVuSans-20" x="931.921875"/>
     <use xlink:href="#DejaVuSans-68" x="963.708984"/>
    </g>
   </g>
   <g id="text_28">
    <!-- $200,000$ TORN stake, Period 3 hours -->
    <g transform="translate(275.353125 16.318125)scale(0.12 -0.12)">
     <defs>
      <path id="DejaVuSans-6b" d="M 581 4863 
L 1159 4863 
L 1159 1991 
L 2875 3500 
L 3609 3500 
L 1753 1863 
L 3688 0 
L 2938 0 
L 1159 1709 
L 1159 0 
L 581 0 
L 581 4863 
z
" transform="scale(0.015625)"/>
     </defs>
     <use xlink:href="#DejaVuSans-32" transform="translate(0 0.015625)"/>
     <use xlink:href="#DejaVuSans-30" transform="translate(63.623047 0.015625)"/>
     <use xlink:href="#DejaVuSans-30" transform="translate(127.246094 0.015625)"/>
     <use xlink:href="#DejaVuSans-2c" transform="translate(190.869141 0.015625)"/>
     <use xlink:href="#DejaVuSans-30" transform="translate(242.138672 0.015625)"/>
     <use xlink:href="#DejaVuSans-30" transform="translate(305.761719 0.015625)"/>
     <use xlink:href="#DejaVuSans-30" transform="translate(369.384766 0.015625)"/>
     <use xlink:href="#DejaVuSans-20" transform="translate(433.007812 0.015625)"/>
     <use xlink:href="#DejaVuSans-54" transform="translate(464.794922 0.015625)"/>
     <use xlink:href="#DejaVuSans-4f" transform="translate(525.878906 0.015625)"/>
     <use xlink:href="#DejaVuSans-52" transform="translate(604.589844 0.015625)"/>
     <use xlink:href="#DejaVuSans-4e" transform="translate(674.072266 0.015625)"/>
     <use xlink:href="#DejaVuSans-20" transform="translate(748.876953 0.015625)"/>
     <use xlink:href="#DejaVuSans-73" transform="translate(780.664062 0.015625)"/>
     <use xlink:href="#DejaVuSans-74" transform="translate(832.763672 0.015625)"/>
     <use xlink:href="#DejaVuSans-61" transform="translate(871.972656 0.015625)"/>
     <use xlink:href="#DejaVuSans-6b" transform="translate(933.251953 0.015625)"/>
     <use xlink:href="#DejaVuSans-65" transform="translate(991.162109 0.015625)"/>
     <use xlink:href="#DejaVuSans-2c" transform="translate(1052.685547 0.015625)"/>
     <use xlink:href="#DejaVuSans-20" transform="translate(1084.472656 0.015625)"/>
     <use xlink:href="#DejaVuSans-50" transform="translate(1116.259766 0.015625)"/>
     <use xlink:href="#DejaVuSans-65" transform="translate(1176.5625 0.015625)"/>
     <use xlink:href="#DejaVuSans-72" transform="translate(1238.085938 0.015625)"/>
     <use xlink:href="#DejaVuSans-69" transform="translate(1279.199219 0.015625)"/>
     <use xlink:href="#DejaVuSans-6f" transform="translate(1306.982422 0.015625)"/>
     <use xlink:href="#DejaVuSans-64" transform="translate(1368.164062 0.015625)"/>
     <use xlink:href="#DejaVuSans-20" transform="translate(1431.640625 0.015625)"/>
     <use xlink:href="#DejaVuSans-33" transform="translate(1463.427734 0.015625)"/>
     <use xlink:href="#DejaVuSans-20" transform="translate(1527.050781 0.015625)"/>
     <use xlink:href="#DejaVuSans-68" transform="translate(1558.837891 0.015625)"/>
     <use xlink:href="#DejaVuSans-6f" transform="translate(1622.216797 0.015625)"/>
     <use xlink:href="#DejaVuSans-75" transform="translate(1683.398438 0.015625)"/>
     <use xlink:href="#DejaVuSans-72" transform="translate(1746.777344 0.015625)"/>
     <use xlink:href="#DejaVuSans-73" transform="translate(1787.890625 0.015625)"/>
    </g>
   </g>
   <g id="legend_1">
    <g id="patch_7">
     <path d="M 590.214062 59.674375 
L 698.453125 59.674375 
Q 700.453125 59.674375 700.453125 57.674375 
L 700.453125 29.318125 
Q 700.453125 27.318125 698.453125 27.318125 
L 590.214062 27.318125 
Q 588.214062 27.318125 588.214062 29.318125 
L 588.214062 57.674375 
Q 588.214062 59.674375 590.214062 59.674375 
z
" style="fill: #ffffff; opacity: 0.8; stroke: #cccccc; stroke-linejoin: miter"/>
    </g>
    <g id="line2d_52">
     <path d="M 592.214062 35.416562 
L 602.214062 35.416562 
L 612.214062 35.416562 
" style="fill: none; stroke: #008000; stroke-width: 1.5; stroke-linecap: square"/>
    </g>
    <g id="text_29">
     <!-- Pure -->
     <g transform="translate(620.214062 38.916562)scale(0.1 -0.1)">
      <use xlink:href="#DejaVuSans-50"/>
      <use xlink:href="#DejaVuSans-75" x="58.552734"/>
      <use xlink:href="#DejaVuSans-72" x="121.931641"/>
      <use xlink:href="#DejaVuSans-65" x="160.794922"/>
     </g>
    </g>
    <g id="line2d_53">
     <path d="M 592.214062 50.094687 
L 602.214062 50.094687 
L 612.214062 50.094687 
" style="fill: none; stroke: #0000ff; stroke-width: 1.5; stroke-linecap: square"/>
    </g>
    <g id="text_30">
     <!-- Gas subtracted -->
     <g transform="translate(620.214062 53.594687)scale(0.1 -0.1)">
      <defs>
       <path id="DejaVuSans-47" d="M 3809 666 
L 3809 1919 
L 2778 1919 
L 2778 2438 
L 4434 2438 
L 4434 434 
Q 4069 175 3628 42 
Q 3188 -91 2688 -91 
Q 1594 -91 976 548 
Q 359 1188 359 2328 
Q 359 3472 976 4111 
Q 1594 4750 2688 4750 
Q 3144 4750 3555 4637 
Q 3966 4525 4313 4306 
L 4313 3634 
Q 3963 3931 3569 4081 
Q 3175 4231 2741 4231 
Q 1884 4231 1454 3753 
Q 1025 3275 1025 2328 
Q 1025 1384 1454 906 
Q 1884 428 2741 428 
Q 3075 428 3337 486 
Q 3600 544 3809 666 
z
" transform="scale(0.015625)"/>
       <path id="DejaVuSans-62" d="M 3116 1747 
Q 3116 2381 2855 2742 
Q 2594 3103 2138 3103 
Q 1681 3103 1420 2742 
Q 1159 2381 1159 1747 
Q 1159 1113 1420 752 
Q 1681 391 2138 391 
Q 2594 391 2855 752 
Q 3116 1113 3116 1747 
z
M 1159 2969 
Q 1341 3281 1617 3432 
Q 1894 3584 2278 3584 
Q 2916 3584 3314 3078 
Q 3713 2572 3713 1747 
Q 3713 922 3314 415 
Q 2916 -91 2278 -91 
Q 1894 -91 1617 61 
Q 1341 213 1159 525 
L 1159 0 
L 581 0 
L 581 4863 
L 1159 4863 
L 1159 2969 
z
" transform="scale(0.015625)"/>
       <path id="DejaVuSans-63" d="M 3122 3366 
L 3122 2828 
Q 2878 2963 2633 3030 
Q 2388 3097 2138 3097 
Q 1578 3097 1268 2742 
Q 959 2388 959 1747 
Q 959 1106 1268 751 
Q 1578 397 2138 397 
Q 2388 397 2633 464 
Q 2878 531 3122 666 
L 3122 134 
Q 2881 22 2623 -34 
Q 2366 -91 2075 -91 
Q 1284 -91 818 406 
Q 353 903 353 1747 
Q 353 2603 823 3093 
Q 1294 3584 2113 3584 
Q 2378 3584 2631 3529 
Q 2884 3475 3122 3366 
z
" transform="scale(0.015625)"/>
      </defs>
      <use xlink:href="#DejaVuSans-47"/>
      <use xlink:href="#DejaVuSans-61" x="77.490234"/>
      <use xlink:href="#DejaVuSans-73" x="138.769531"/>
      <use xlink:href="#DejaVuSans-20" x="190.869141"/>
      <use xlink:href="#DejaVuSans-73" x="222.65625"/>
      <use xlink:href="#DejaVuSans-75" x="274.755859"/>
      <use xlink:href="#DejaVuSans-62" x="338.134766"/>
      <use xlink:href="#DejaVuSans-74" x="401.611328"/>
      <use xlink:href="#DejaVuSans-72" x="440.820312"/>
      <use xlink:href="#DejaVuSans-61" x="481.933594"/>
      <use xlink:href="#DejaVuSans-63" x="543.212891"/>
      <use xlink:href="#DejaVuSans-74" x="598.193359"/>
      <use xlink:href="#DejaVuSans-65" x="637.402344"/>
      <use xlink:href="#DejaVuSans-64" x="698.925781"/>
     </g>
    </g>
   </g>
  </g>
  <g id="axes_2">
   <g id="patch_8">
    <path d="M 66.053125 455.718125 
L 705.453125 455.718125 
L 705.453125 305.478125 
L 66.053125 305.478125 
z
" style="fill: #ffffff"/>
   </g>
   <g id="matplotlib.axis_3">
    <g id="xtick_20">
     <g id="line2d_54">
      <path d="M 95.116761 455.718125 
L 95.116761 305.478125 
" clip-path="url(#pfd225a4541)" style="fill: none; stroke: #b0b0b0; stroke-width: 0.8; stroke-linecap: square"/>
     </g>
     <g id="line2d_55">
      <g>
       <use xlink:href="#meeab2fd727" x="95.116761" y="455.718125" style="stroke: #000000; stroke-width: 0.8"/>
      </g>
     </g>
     <g id="text_31">
      <!-- 3 -->
      <g transform="translate(91.935511 470.316562)scale(0.1 -0.1)">
       <use xlink:href="#DejaVuSans-33"/>
      </g>
     </g>
    </g>
    <g id="xtick_21">
     <g id="line2d_56">
      <path d="M 126.822546 455.718125 
L 126.822546 305.478125 
" clip-path="url(#pfd225a4541)" style="fill: none; stroke: #b0b0b0; stroke-width: 0.8; stroke-linecap: square"/>
     </g>
     <g id="line2d_57">
      <g>
       <use xlink:href="#meeab2fd727" x="126.822546" y="455.718125" style="stroke: #000000; stroke-width: 0.8"/>
      </g>
     </g>
     <g id="text_32">
      <!-- 21 -->
      <g transform="translate(120.460046 470.316562)scale(0.1 -0.1)">
       <use xlink:href="#DejaVuSans-32"/>
       <use xlink:href="#DejaVuSans-31" x="63.623047"/>
      </g>
     </g>
    </g>
    <g id="xtick_22">
     <g id="line2d_58">
      <path d="M 158.528332 455.718125 
L 158.528332 305.478125 
" clip-path="url(#pfd225a4541)" style="fill: none; stroke: #b0b0b0; stroke-width: 0.8; stroke-linecap: square"/>
     </g>
     <g id="line2d_59">
      <g>
       <use xlink:href="#meeab2fd727" x="158.528332" y="455.718125" style="stroke: #000000; stroke-width: 0.8"/>
      </g>
     </g>
     <g id="text_33">
      <!-- 39 -->
      <g transform="translate(152.165832 470.316562)scale(0.1 -0.1)">
       <use xlink:href="#DejaVuSans-33"/>
       <use xlink:href="#DejaVuSans-39" x="63.623047"/>
      </g>
     </g>
    </g>
    <g id="xtick_23">
     <g id="line2d_60">
      <path d="M 190.234117 455.718125 
L 190.234117 305.478125 
" clip-path="url(#pfd225a4541)" style="fill: none; stroke: #b0b0b0; stroke-width: 0.8; stroke-linecap: square"/>
     </g>
     <g id="line2d_61">
      <g>
       <use xlink:href="#meeab2fd727" x="190.234117" y="455.718125" style="stroke: #000000; stroke-width: 0.8"/>
      </g>
     </g>
     <g id="text_34">
      <!-- 57 -->
      <g transform="translate(183.871617 470.316562)scale(0.1 -0.1)">
       <use xlink:href="#DejaVuSans-35"/>
       <use xlink:href="#DejaVuSans-37" x="63.623047"/>
      </g>
     </g>
    </g>
    <g id="xtick_24">
     <g id="line2d_62">
      <path d="M 221.939902 455.718125 
L 221.939902 305.478125 
" clip-path="url(#pfd225a4541)" style="fill: none; stroke: #b0b0b0; stroke-width: 0.8; stroke-linecap: square"/>
     </g>
     <g id="line2d_63">
      <g>
       <use xlink:href="#meeab2fd727" x="221.939902" y="455.718125" style="stroke: #000000; stroke-width: 0.8"/>
      </g>
     </g>
     <g id="text_35">
      <!-- 75 -->
      <g transform="translate(215.577402 470.316562)scale(0.1 -0.1)">
       <use xlink:href="#DejaVuSans-37"/>
       <use xlink:href="#DejaVuSans-35" x="63.623047"/>
      </g>
     </g>
    </g>
    <g id="xtick_25">
     <g id="line2d_64">
      <path d="M 253.645687 455.718125 
L 253.645687 305.478125 
" clip-path="url(#pfd225a4541)" style="fill: none; stroke: #b0b0b0; stroke-width: 0.8; stroke-linecap: square"/>
     </g>
     <g id="line2d_65">
      <g>
       <use xlink:href="#meeab2fd727" x="253.645687" y="455.718125" style="stroke: #000000; stroke-width: 0.8"/>
      </g>
     </g>
     <g id="text_36">
      <!-- 93 -->
      <g transform="translate(247.283187 470.316562)scale(0.1 -0.1)">
       <use xlink:href="#DejaVuSans-39"/>
       <use xlink:href="#DejaVuSans-33" x="63.623047"/>
      </g>
     </g>
    </g>
    <g id="xtick_26">
     <g id="line2d_66">
      <path d="M 285.351472 455.718125 
L 285.351472 305.478125 
" clip-path="url(#pfd225a4541)" style="fill: none; stroke: #b0b0b0; stroke-width: 0.8; stroke-linecap: square"/>
     </g>
     <g id="line2d_67">
      <g>
       <use xlink:href="#meeab2fd727" x="285.351472" y="455.718125" style="stroke: #000000; stroke-width: 0.8"/>
      </g>
     </g>
     <g id="text_37">
      <!-- 111 -->
      <g transform="translate(275.807722 470.316562)scale(0.1 -0.1)">
       <use xlink:href="#DejaVuSans-31"/>
       <use xlink:href="#DejaVuSans-31" x="63.623047"/>
       <use xlink:href="#DejaVuSans-31" x="127.246094"/>
      </g>
     </g>
    </g>
    <g id="xtick_27">
     <g id="line2d_68">
      <path d="M 317.057257 455.718125 
L 317.057257 305.478125 
" clip-path="url(#pfd225a4541)" style="fill: none; stroke: #b0b0b0; stroke-width: 0.8; stroke-linecap: square"/>
     </g>
     <g id="line2d_69">
      <g>
       <use xlink:href="#meeab2fd727" x="317.057257" y="455.718125" style="stroke: #000000; stroke-width: 0.8"/>
      </g>
     </g>
     <g id="text_38">
      <!-- 129 -->
      <g transform="translate(307.513507 470.316562)scale(0.1 -0.1)">
       <use xlink:href="#DejaVuSans-31"/>
       <use xlink:href="#DejaVuSans-32" x="63.623047"/>
       <use xlink:href="#DejaVuSans-39" x="127.246094"/>
      </g>
     </g>
    </g>
    <g id="xtick_28">
     <g id="line2d_70">
      <path d="M 348.763042 455.718125 
L 348.763042 305.478125 
" clip-path="url(#pfd225a4541)" style="fill: none; stroke: #b0b0b0; stroke-width: 0.8; stroke-linecap: square"/>
     </g>
     <g id="line2d_71">
      <g>
       <use xlink:href="#meeab2fd727" x="348.763042" y="455.718125" style="stroke: #000000; stroke-width: 0.8"/>
      </g>
     </g>
     <g id="text_39">
      <!-- 147 -->
      <g transform="translate(339.219292 470.316562)scale(0.1 -0.1)">
       <use xlink:href="#DejaVuSans-31"/>
       <use xlink:href="#DejaVuSans-34" x="63.623047"/>
       <use xlink:href="#DejaVuSans-37" x="127.246094"/>
      </g>
     </g>
    </g>
    <g id="xtick_29">
     <g id="line2d_72">
      <path d="M 380.468827 455.718125 
L 380.468827 305.478125 
" clip-path="url(#pfd225a4541)" style="fill: none; stroke: #b0b0b0; stroke-width: 0.8; stroke-linecap: square"/>
     </g>
     <g id="line2d_73">
      <g>
       <use xlink:href="#meeab2fd727" x="380.468827" y="455.718125" style="stroke: #000000; stroke-width: 0.8"/>
      </g>
     </g>
     <g id="text_40">
      <!-- 165 -->
      <g transform="translate(370.925077 470.316562)scale(0.1 -0.1)">
       <use xlink:href="#DejaVuSans-31"/>
       <use xlink:href="#DejaVuSans-36" x="63.623047"/>
       <use xlink:href="#DejaVuSans-35" x="127.246094"/>
      </g>
     </g>
    </g>
    <g id="xtick_30">
     <g id="line2d_74">
      <path d="M 412.174613 455.718125 
L 412.174613 305.478125 
" clip-path="url(#pfd225a4541)" style="fill: none; stroke: #b0b0b0; stroke-width: 0.8; stroke-linecap: square"/>
     </g>
     <g id="line2d_75">
      <g>
       <use xlink:href="#meeab2fd727" x="412.174613" y="455.718125" style="stroke: #000000; stroke-width: 0.8"/>
      </g>
     </g>
     <g id="text_41">
      <!-- 183 -->
      <g transform="translate(402.630863 470.316562)scale(0.1 -0.1)">
       <use xlink:href="#DejaVuSans-31"/>
       <use xlink:href="#DejaVuSans-38" x="63.623047"/>
       <use xlink:href="#DejaVuSans-33" x="127.246094"/>
      </g>
     </g>
    </g>
    <g id="xtick_31">
     <g id="line2d_76">
      <path d="M 443.880398 455.718125 
L 443.880398 305.478125 
" clip-path="url(#pfd225a4541)" style="fill: none; stroke: #b0b0b0; stroke-width: 0.8; stroke-linecap: square"/>
     </g>
     <g id="line2d_77">
      <g>
       <use xlink:href="#meeab2fd727" x="443.880398" y="455.718125" style="stroke: #000000; stroke-width: 0.8"/>
      </g>
     </g>
     <g id="text_42">
      <!-- 201 -->
      <g transform="translate(434.336648 470.316562)scale(0.1 -0.1)">
       <use xlink:href="#DejaVuSans-32"/>
       <use xlink:href="#DejaVuSans-30" x="63.623047"/>
       <use xlink:href="#DejaVuSans-31" x="127.246094"/>
      </g>
     </g>
    </g>
    <g id="xtick_32">
     <g id="line2d_78">
      <path d="M 475.586183 455.718125 
L 475.586183 305.478125 
" clip-path="url(#pfd225a4541)" style="fill: none; stroke: #b0b0b0; stroke-width: 0.8; stroke-linecap: square"/>
     </g>
     <g id="line2d_79">
      <g>
       <use xlink:href="#meeab2fd727" x="475.586183" y="455.718125" style="stroke: #000000; stroke-width: 0.8"/>
      </g>
     </g>
     <g id="text_43">
      <!-- 219 -->
      <g transform="translate(466.042433 470.316562)scale(0.1 -0.1)">
       <use xlink:href="#DejaVuSans-32"/>
       <use xlink:href="#DejaVuSans-31" x="63.623047"/>
       <use xlink:href="#DejaVuSans-39" x="127.246094"/>
      </g>
     </g>
    </g>
    <g id="xtick_33">
     <g id="line2d_80">
      <path d="M 507.291968 455.718125 
L 507.291968 305.478125 
" clip-path="url(#pfd225a4541)" style="fill: none; stroke: #b0b0b0; stroke-width: 0.8; stroke-linecap: square"/>
     </g>
     <g id="line2d_81">
      <g>
       <use xlink:href="#meeab2fd727" x="507.291968" y="455.718125" style="stroke: #000000; stroke-width: 0.8"/>
      </g>
     </g>
     <g id="text_44">
      <!-- 237 -->
      <g transform="translate(497.748218 470.316562)scale(0.1 -0.1)">
       <use xlink:href="#DejaVuSans-32"/>
       <use xlink:href="#DejaVuSans-33" x="63.623047"/>
       <use xlink:href="#DejaVuSans-37" x="127.246094"/>
      </g>
     </g>
    </g>
    <g id="xtick_34">
     <g id="line2d_82">
      <path d="M 538.997753 455.718125 
L 538.997753 305.478125 
" clip-path="url(#pfd225a4541)" style="fill: none; stroke: #b0b0b0; stroke-width: 0.8; stroke-linecap: square"/>
     </g>
     <g id="line2d_83">
      <g>
       <use xlink:href="#meeab2fd727" x="538.997753" y="455.718125" style="stroke: #000000; stroke-width: 0.8"/>
      </g>
     </g>
     <g id="text_45">
      <!-- 255 -->
      <g transform="translate(529.454003 470.316562)scale(0.1 -0.1)">
       <use xlink:href="#DejaVuSans-32"/>
       <use xlink:href="#DejaVuSans-35" x="63.623047"/>
       <use xlink:href="#DejaVuSans-35" x="127.246094"/>
      </g>
     </g>
    </g>
    <g id="xtick_35">
     <g id="line2d_84">
      <path d="M 570.703538 455.718125 
L 570.703538 305.478125 
" clip-path="url(#pfd225a4541)" style="fill: none; stroke: #b0b0b0; stroke-width: 0.8; stroke-linecap: square"/>
     </g>
     <g id="line2d_85">
      <g>
       <use xlink:href="#meeab2fd727" x="570.703538" y="455.718125" style="stroke: #000000; stroke-width: 0.8"/>
      </g>
     </g>
     <g id="text_46">
      <!-- 273 -->
      <g transform="translate(561.159788 470.316562)scale(0.1 -0.1)">
       <use xlink:href="#DejaVuSans-32"/>
       <use xlink:href="#DejaVuSans-37" x="63.623047"/>
       <use xlink:href="#DejaVuSans-33" x="127.246094"/>
      </g>
     </g>
    </g>
    <g id="xtick_36">
     <g id="line2d_86">
      <path d="M 602.409323 455.718125 
L 602.409323 305.478125 
" clip-path="url(#pfd225a4541)" style="fill: none; stroke: #b0b0b0; stroke-width: 0.8; stroke-linecap: square"/>
     </g>
     <g id="line2d_87">
      <g>
       <use xlink:href="#meeab2fd727" x="602.409323" y="455.718125" style="stroke: #000000; stroke-width: 0.8"/>
      </g>
     </g>
     <g id="text_47">
      <!-- 291 -->
      <g transform="translate(592.865573 470.316562)scale(0.1 -0.1)">
       <use xlink:href="#DejaVuSans-32"/>
       <use xlink:href="#DejaVuSans-39" x="63.623047"/>
       <use xlink:href="#DejaVuSans-31" x="127.246094"/>
      </g>
     </g>
    </g>
    <g id="xtick_37">
     <g id="line2d_88">
      <path d="M 634.115108 455.718125 
L 634.115108 305.478125 
" clip-path="url(#pfd225a4541)" style="fill: none; stroke: #b0b0b0; stroke-width: 0.8; stroke-linecap: square"/>
     </g>
     <g id="line2d_89">
      <g>
       <use xlink:href="#meeab2fd727" x="634.115108" y="455.718125" style="stroke: #000000; stroke-width: 0.8"/>
      </g>
     </g>
     <g id="text_48">
      <!-- 309 -->
      <g transform="translate(624.571358 470.316562)scale(0.1 -0.1)">
       <use xlink:href="#DejaVuSans-33"/>
       <use xlink:href="#DejaVuSans-30" x="63.623047"/>
       <use xlink:href="#DejaVuSans-39" x="127.246094"/>
      </g>
     </g>
    </g>
    <g id="xtick_38">
     <g id="line2d_90">
      <path d="M 665.820894 455.718125 
L 665.820894 305.478125 
" clip-path="url(#pfd225a4541)" style="fill: none; stroke: #b0b0b0; stroke-width: 0.8; stroke-linecap: square"/>
     </g>
     <g id="line2d_91">
      <g>
       <use xlink:href="#meeab2fd727" x="665.820894" y="455.718125" style="stroke: #000000; stroke-width: 0.8"/>
      </g>
     </g>
     <g id="text_49">
      <!-- 327 -->
      <g transform="translate(656.277144 470.316562)scale(0.1 -0.1)">
       <use xlink:href="#DejaVuSans-33"/>
       <use xlink:href="#DejaVuSans-32" x="63.623047"/>
       <use xlink:href="#DejaVuSans-37" x="127.246094"/>
      </g>
     </g>
    </g>
    <g id="text_50">
     <!-- Period, h -->
     <g transform="translate(363.817969 483.994687)scale(0.1 -0.1)">
      <use xlink:href="#DejaVuSans-50"/>
      <use xlink:href="#DejaVuSans-65" x="56.677734"/>
      <use xlink:href="#DejaVuSans-72" x="118.201172"/>
      <use xlink:href="#DejaVuSans-69" x="159.314453"/>
      <use xlink:href="#DejaVuSans-6f" x="187.097656"/>
      <use xlink:href="#DejaVuSans-64" x="248.279297"/>
      <use xlink:href="#DejaVuSans-2c" x="311.755859"/>
      <use xlink:href="#DejaVuSans-20" x="343.542969"/>
      <use xlink:href="#DejaVuSans-68" x="375.330078"/>
     </g>
    </g>
   </g>
   <g id="matplotlib.axis_4">
    <g id="ytick_6">
     <g id="line2d_92">
      <path d="M 66.053125 450.390173 
L 705.453125 450.390173 
" clip-path="url(#pfd225a4541)" style="fill: none; stroke: #b0b0b0; stroke-width: 0.8; stroke-linecap: square"/>
     </g>
     <g id="line2d_93">
      <g>
       <use xlink:href="#m703179c1b4" x="66.053125" y="450.390173" style="stroke: #000000; stroke-width: 0.8"/>
      </g>
     </g>
     <g id="text_51">
      <!-- 0 -->
      <g transform="translate(52.690625 454.189391)scale(0.1 -0.1)">
       <use xlink:href="#DejaVuSans-30"/>
      </g>
     </g>
    </g>
    <g id="ytick_7">
     <g id="line2d_94">
      <path d="M 66.053125 412.030282 
L 705.453125 412.030282 
" clip-path="url(#pfd225a4541)" style="fill: none; stroke: #b0b0b0; stroke-width: 0.8; stroke-linecap: square"/>
     </g>
     <g id="line2d_95">
      <g>
       <use xlink:href="#m703179c1b4" x="66.053125" y="412.030282" style="stroke: #000000; stroke-width: 0.8"/>
      </g>
     </g>
     <g id="text_52">
      <!-- 1 -->
      <g transform="translate(52.690625 415.8295)scale(0.1 -0.1)">
       <use xlink:href="#DejaVuSans-31"/>
      </g>
     </g>
    </g>
    <g id="ytick_8">
     <g id="line2d_96">
      <path d="M 66.053125 373.670391 
L 705.453125 373.670391 
" clip-path="url(#pfd225a4541)" style="fill: none; stroke: #b0b0b0; stroke-width: 0.8; stroke-linecap: square"/>
     </g>
     <g id="line2d_97">
      <g>
       <use xlink:href="#m703179c1b4" x="66.053125" y="373.670391" style="stroke: #000000; stroke-width: 0.8"/>
      </g>
     </g>
     <g id="text_53">
      <!-- 2 -->
      <g transform="translate(52.690625 377.46961)scale(0.1 -0.1)">
       <use xlink:href="#DejaVuSans-32"/>
      </g>
     </g>
    </g>
    <g id="ytick_9">
     <g id="line2d_98">
      <path d="M 66.053125 335.3105 
L 705.453125 335.3105 
" clip-path="url(#pfd225a4541)" style="fill: none; stroke: #b0b0b0; stroke-width: 0.8; stroke-linecap: square"/>
     </g>
     <g id="line2d_99">
      <g>
       <use xlink:href="#m703179c1b4" x="66.053125" y="335.3105" style="stroke: #000000; stroke-width: 0.8"/>
      </g>
     </g>
     <g id="text_54">
      <!-- 3 -->
      <g transform="translate(52.690625 339.109719)scale(0.1 -0.1)">
       <use xlink:href="#DejaVuSans-33"/>
      </g>
     </g>
    </g>
    <g id="text_55">
     <!-- TORN -->
     <g transform="translate(46.610938 394.802812)rotate(-90)scale(0.1 -0.1)">
      <use xlink:href="#DejaVuSans-54"/>
      <use xlink:href="#DejaVuSans-4f" x="61.083984"/>
      <use xlink:href="#DejaVuSans-52" x="139.794922"/>
      <use xlink:href="#DejaVuSans-4e" x="209.277344"/>
     </g>
    </g>
   </g>
   <g id="line2d_100">
    <path d="M 95.116761 312.307216 
L 100.401059 379.708046 
L 105.685356 402.701161 
L 110.969654 414.767195 
L 116.253951 421.394398 
L 121.538249 425.990064 
L 126.822546 429.894524 
L 132.106844 432.050958 
L 137.391142 434.060437 
L 142.675439 435.926417 
L 147.959737 437.471911 
L 153.244034 437.996848 
L 158.528332 439.184162 
L 163.812629 440.032645 
L 169.096927 440.202098 
L 174.381224 441.129587 
L 179.665522 441.625017 
L 184.949819 442.030976 
L 190.234117 442.529932 
L 195.518414 443.26739 
L 200.802712 443.432194 
L 206.087009 444.112987 
L 211.371307 443.756837 
L 216.655604 443.998638 
L 221.939902 443.887842 
L 227.224199 444.85866 
L 232.508497 444.459939 
L 237.792794 444.527106 
L 243.077092 444.969219 
L 248.361389 445.541719 
L 253.645687 445.407744 
L 258.929985 445.120868 
L 264.214282 445.734883 
L 269.49858 445.750273 
L 274.782877 445.873548 
L 280.067175 445.967564 
L 285.351472 446.018249 
L 290.63577 446.607698 
L 295.920067 446.514713 
L 301.204365 446.257849 
L 306.488662 446.257849 
L 311.77296 446.38323 
L 317.057257 446.206837 
L 322.341555 447.06922 
L 327.625852 447.06922 
L 332.91015 447.19414 
L 338.194447 447.19414 
L 343.478745 447.200337 
L 348.763042 447.200337 
L 354.04734 447.089541 
L 359.331637 447.051641 
L 364.615935 447.788931 
L 369.900232 447.788931 
L 375.18453 447.258563 
L 380.468827 447.258563 
L 385.753125 447.344479 
L 391.037423 447.344479 
L 396.32172 447.344479 
L 401.606018 447.792302 
L 406.890315 447.896244 
L 412.174613 447.896244 
L 417.45891 447.946929 
L 422.743208 447.946929 
L 428.027505 447.803239 
L 433.311803 448.417254 
L 438.5961 448.417254 
L 443.880398 448.306458 
L 449.164695 448.380693 
L 454.448993 448.380693 
L 459.73329 448.454124 
L 465.017588 448.454124 
L 470.301885 448.100318 
L 475.586183 448.100318 
L 480.87048 448.100318 
L 486.154778 448.100318 
L 491.439075 448.062417 
L 496.723373 448.062417 
L 502.00767 448.062417 
L 507.291968 448.062417 
L 512.576265 447.75977 
L 517.860563 447.75977 
L 523.144861 447.75977 
L 528.429158 447.75977 
L 533.713456 447.811721 
L 538.997753 447.811721 
L 544.282051 447.811721 
L 549.566348 448.425736 
L 554.850646 448.820863 
L 560.134943 448.820863 
L 565.419241 448.820863 
L 570.703538 448.820863 
L 575.987836 448.871547 
L 581.272133 448.871547 
L 586.556431 448.871547 
L 591.840728 448.871547 
L 597.125026 448.876555 
L 602.409323 448.876555 
L 607.693621 448.876555 
L 612.977918 448.876555 
L 618.262216 448.765759 
L 623.546513 448.765759 
L 628.830811 448.765759 
L 634.115108 448.765759 
L 639.399406 448.889034 
L 644.683704 448.889034 
L 649.968001 448.889034 
L 655.252299 448.889034 
L 660.536596 448.742276 
L 665.820894 448.742276 
L 671.105191 448.742276 
L 676.389489 448.742276 
" clip-path="url(#pfd225a4541)" style="fill: none; stroke: #1f77b4; stroke-width: 1.5; stroke-linecap: square"/>
   </g>
   <g id="patch_9">
    <path d="M 66.053125 455.718125 
L 66.053125 305.478125 
" style="fill: none; stroke: #000000; stroke-width: 0.8; stroke-linejoin: miter; stroke-linecap: square"/>
   </g>
   <g id="patch_10">
    <path d="M 705.453125 455.718125 
L 705.453125 305.478125 
" style="fill: none; stroke: #000000; stroke-width: 0.8; stroke-linejoin: miter; stroke-linecap: square"/>
   </g>
   <g id="patch_11">
    <path d="M 66.053125 455.718125 
L 705.453125 455.718125 
" style="fill: none; stroke: #000000; stroke-width: 0.8; stroke-linejoin: miter; stroke-linecap: square"/>
   </g>
   <g id="patch_12">
    <path d="M 66.053125 305.478125 
L 705.453125 305.478125 
" style="fill: none; stroke: #000000; stroke-width: 0.8; stroke-linejoin: miter; stroke-linecap: square"/>
   </g>
   <g id="text_56">
    <!-- Gas spendings, ETH -->
    <g transform="translate(325.970625 299.478125)scale(0.12 -0.12)">
     <defs>
      <path id="DejaVuSans-6e" d="M 3513 2113 
L 3513 0 
L 2938 0 
L 2938 2094 
Q 2938 2591 2744 2837 
Q 2550 3084 2163 3084 
Q 1697 3084 1428 2787 
Q 1159 2491 1159 1978 
L 1159 0 
L 581 0 
L 581 3500 
L 1159 3500 
L 1159 2956 
Q 1366 3272 1645 3428 
Q 1925 3584 2291 3584 
Q 2894 3584 3203 3211 
Q 3513 2838 3513 2113 
z
" transform="scale(0.015625)"/>
      <path id="DejaVuSans-67" d="M 2906 1791 
Q 2906 2416 2648 2759 
Q 2391 3103 1925 3103 
Q 1463 3103 1205 2759 
Q 947 2416 947 1791 
Q 947 1169 1205 825 
Q 1463 481 1925 481 
Q 2391 481 2648 825 
Q 2906 1169 2906 1791 
z
M 3481 434 
Q 3481 -459 3084 -895 
Q 2688 -1331 1869 -1331 
Q 1566 -1331 1297 -1286 
Q 1028 -1241 775 -1147 
L 775 -588 
Q 1028 -725 1275 -790 
Q 1522 -856 1778 -856 
Q 2344 -856 2625 -561 
Q 2906 -266 2906 331 
L 2906 616 
Q 2728 306 2450 153 
Q 2172 0 1784 0 
Q 1141 0 747 490 
Q 353 981 353 1791 
Q 353 2603 747 3093 
Q 1141 3584 1784 3584 
Q 2172 3584 2450 3431 
Q 2728 3278 2906 2969 
L 2906 3500 
L 3481 3500 
L 3481 434 
z
" transform="scale(0.015625)"/>
      <path id="DejaVuSans-45" d="M 628 4666 
L 3578 4666 
L 3578 4134 
L 1259 4134 
L 1259 2753 
L 3481 2753 
L 3481 2222 
L 1259 2222 
L 1259 531 
L 3634 531 
L 3634 0 
L 628 0 
L 628 4666 
z
" transform="scale(0.015625)"/>
      <path id="DejaVuSans-48" d="M 628 4666 
L 1259 4666 
L 1259 2753 
L 3553 2753 
L 3553 4666 
L 4184 4666 
L 4184 0 
L 3553 0 
L 3553 2222 
L 1259 2222 
L 1259 0 
L 628 0 
L 628 4666 
z
" transform="scale(0.015625)"/>
     </defs>
     <use xlink:href="#DejaVuSans-47"/>
     <use xlink:href="#DejaVuSans-61" x="77.490234"/>
     <use xlink:href="#DejaVuSans-73" x="138.769531"/>
     <use xlink:href="#DejaVuSans-20" x="190.869141"/>
     <use xlink:href="#DejaVuSans-73" x="222.65625"/>
     <use xlink:href="#DejaVuSans-70" x="274.755859"/>
     <use xlink:href="#DejaVuSans-65" x="338.232422"/>
     <use xlink:href="#DejaVuSans-6e" x="399.755859"/>
     <use xlink:href="#DejaVuSans-64" x="463.134766"/>
     <use xlink:href="#DejaVuSans-69" x="526.611328"/>
     <use xlink:href="#DejaVuSans-6e" x="554.394531"/>
     <use xlink:href="#DejaVuSans-67" x="617.773438"/>
     <use xlink:href="#DejaVuSans-73" x="681.25"/>
     <use xlink:href="#DejaVuSans-2c" x="733.349609"/>
     <use xlink:href="#DejaVuSans-20" x="765.136719"/>
     <use xlink:href="#DejaVuSans-45" x="796.923828"/>
     <use xlink:href="#DejaVuSans-54" x="860.107422"/>
     <use xlink:href="#DejaVuSans-48" x="921.191406"/>
    </g>
   </g>
  </g>
 </g>
 <defs>
  <clipPath id="pb34e06cdf7">
   <rect x="66.053125" y="22.318125" width="639.4" height="225.36"/>
  </clipPath>
  <clipPath id="pfd225a4541">
   <rect x="66.053125" y="305.478125" width="639.4" height="150.24"/>
  </clipPath>
 </defs>
</svg>
